<svg id="Layer_2" height="512" viewBox="0 0 512 512" width="512" xmlns="http://www.w3.org/2000/svg" data-name="Layer 2"><path d="m384 352-8-250.3-8.628-33.685a79.819 79.819 0 0 0 -77.323-60.015h-68.1a79.819 79.819 0 0 0 -77.322 60.013l-8.627 33.687-8 250.3" fill="#8f4c2e"/><path d="m160 296h16v56h-16z" fill="#824429"/><path d="m336 296h16v56h-16z" fill="#824429"/><path d="m504 512v-33.805l-56-126.195h-384l-56 120v40z" fill="#cce9ea"/><path d="m120 496v16h264v-16c-32-40-24-144-24-144h-216s8 104-24 144z" fill="#354458"/><path d="m304 512v-24c18-24 24-96 24-96v-40h-144v40s6 72 24 96v24z" fill="#9fd3d3"/><path d="m200 264v88l56 48 56-48v-88z" fill="#e8b28e"/><path d="m200 323.212c52.244 18.922 94.943-7.19 112-20.387v-30.825h-112z" fill="#eaa475"/><path d="m272 40s8 56 64 72v144l-56 48h-48l-56-48v-168l32-48z" fill="#fdcaa7"/><path d="m216.988 213.316-.988-173.316h-8l-32 48v168l56 48h48l11.017-9.443-53.421-38.852a50.12 50.12 0 0 1 -20.608-42.389z" fill="#f9f2ed" opacity=".3"/><g fill="#54310c"><path d="m234.343 133.657-5.656-5.657h-28.687v-16h32a8 8 0 0 1 5.657 2.343l8 8z"/><path d="m277.657 133.657-11.313-11.313 8-8a8 8 0 0 1 5.656-2.344h32v16h-28.687z"/><path d="m272 200h-16a8 8 0 0 1 -8-8v-56h16v48h8z"/></g><path d="m112 416h16v96h-16z" fill="#a3d3c5"/><path d="m376 416h16v96h-16z" fill="#a3d3c5"/><path d="m208 136h16v16h-16z" fill="#54310c"/><path d="m288 136h16v16h-16z" fill="#54310c"/><g opacity=".81"><path d="m294.06 231.761-31.045-7.761h-14.03l-31.044 7.761-3.881-15.522 32-8a8 8 0 0 1 1.94-.239h16a8 8 0 0 1 1.94.239l32 8z" fill="#60230e"/></g><path d="m272 256h-32a8 8 0 0 1 -5.657-2.343l-8-8 11.313-11.313 5.657 5.656h25.373l5.657-5.657 11.313 11.313-8 8a8 8 0 0 1 -5.656 2.344z" fill="#54310c"/><path d="m272 512v-72h-32v72" fill="#231f20" stroke="#231f20" stroke-linejoin="round" stroke-width="16"/><path d="m320 208v32l-40 32h-48l-40-32v-32h-16v48l56 48h48l56-48v-48z" fill="#60230e" opacity=".81"/><g opacity=".5"><path d="m248 272h16v32h-16z" fill="#542919"/></g><path d="m224 384v32a8 8 0 0 0 .411 2.53l8 24a8 8 0 0 0 7.589 5.47h32a8 8 0 0 0 7.589-5.47l8-24a8 8 0 0 0 .411-2.53v-32z" fill="#3b4c62"/><path d="m8 472v3.864c20.241-8.384 40.86-22.091 59.316-40.548 25.857-25.857 42.4-55.956 48.029-83.316h-51.345z" fill="#f9f2ed" opacity=".4"/><path d="m256 384c-24 8-32 56-32 56l-40-48v-40h16z" fill="#79b5b4"/><path d="m328 352v40l-40 48s-8-48-32-56l56-32z" fill="#79b5b4"/></svg>